<svg width="25" height="25" viewBox="0 0 14 25" fill="none" xmlns="http://www.w3.org/2000/svg">
<path d="M12.6667 4.65479H8.66667C7.93027 4.65479 7.33333 5.25175 7.33333 5.98812V9.98812H12.6667C12.8183 9.98476 12.9621 10.0553 13.0523 10.1773C13.1424 10.2993 13.1677 10.4575 13.12 10.6015L12.1333 13.5348C12.0424 13.804 11.7908 13.986 11.5067 13.9881H7.33333V23.9881C7.33333 24.3563 7.0348 24.6548 6.66667 24.6548H3.33333C2.96515 24.6548 2.66667 24.3563 2.66667 23.9881V13.9881H0.666667C0.29848 13.9881 0 13.6896 0 13.3215V10.6548C0 10.2867 0.29848 9.98812 0.666667 9.98812H2.66667V5.98812C2.66667 3.0426 5.05453 0.654785 8 0.654785H12.6667C13.0348 0.654785 13.3333 0.953265 13.3333 1.32145V3.98812C13.3333 4.35631 13.0348 4.65479 12.6667 4.65479Z" fill="black"/>
</svg>
