<svg width="25" height="25" viewBox="0 0 25 25" fill="none" xmlns="http://www.w3.org/2000/svg">
<path fill-rule="evenodd" clip-rule="evenodd" d="M18.0001 0.654785H7.33341C3.65152 0.654785 0.666748 3.63956 0.666748 7.32145V17.9881C0.666748 21.67 3.65152 24.6548 7.33341 24.6548H18.0001C21.6819 24.6548 24.6667 21.67 24.6667 17.9881V7.32145C24.6667 3.63956 21.6819 0.654785 18.0001 0.654785ZM22.3334 17.9881C22.3261 20.3783 20.3902 22.3141 18.0001 22.3215H7.33341C4.94321 22.3141 3.0074 20.3783 3.00008 17.9881V7.32145C3.0074 4.93125 4.94321 2.99544 7.33341 2.98812H18.0001C20.3902 2.99544 22.3261 4.93125 22.3334 7.32145V17.9881ZM19.0001 7.65479C19.7365 7.65479 20.3334 7.05783 20.3334 6.32145C20.3334 5.58508 19.7365 4.98812 19.0001 4.98812C18.2637 4.98812 17.6667 5.58508 17.6667 6.32145C17.6667 7.05783 18.2637 7.65479 19.0001 7.65479ZM12.6667 6.65479C9.35304 6.65479 6.66675 9.34108 6.66675 12.6548C6.66675 15.9685 9.35304 18.6548 12.6667 18.6548C15.9805 18.6548 18.6667 15.9685 18.6667 12.6548C18.6703 11.0624 18.0393 9.53421 16.9133 8.40822C15.7873 7.28224 14.2591 6.65124 12.6667 6.65479ZM9.00008 12.6548C9.00008 14.6799 10.6417 16.3215 12.6667 16.3215C14.6918 16.3215 16.3334 14.6799 16.3334 12.6548C16.3334 10.6297 14.6918 8.98812 12.6667 8.98812C10.6417 8.98812 9.00008 10.6297 9.00008 12.6548Z" fill="black"/>
</svg>
