<svg width="25" height="25" viewBox="0 0 25 25" fill="none" xmlns="http://www.w3.org/2000/svg">
<path fill-rule="evenodd" clip-rule="evenodd" d="M3.33341 0.654785H22.0001C23.4729 0.654785 24.6667 1.84869 24.6667 3.32145V21.9881C24.6667 23.4609 23.4729 24.6548 22.0001 24.6548H3.33341C1.86065 24.6548 0.666748 23.4609 0.666748 21.9881V3.32145C0.666748 1.84869 1.86065 0.654785 3.33341 0.654785ZM7.33341 20.6548C7.7016 20.6548 8.00008 20.3563 8.00008 19.9881V10.6548C8.00008 10.2867 7.7016 9.98812 7.33341 9.98812H5.33341C4.96523 9.98812 4.66675 10.2867 4.66675 10.6548V19.9881C4.66675 20.3563 4.96523 20.6548 5.33341 20.6548H7.33341ZM6.33341 8.65479C5.22884 8.65479 4.33341 7.75936 4.33341 6.65479C4.33341 5.55021 5.22884 4.65479 6.33341 4.65479C7.43799 4.65479 8.33341 5.55021 8.33341 6.65479C8.33341 7.75936 7.43799 8.65479 6.33341 8.65479ZM20.0001 20.6548C20.3682 20.6548 20.6667 20.3563 20.6667 19.9881V13.8548C20.7101 11.7359 19.1435 9.92748 17.0401 9.66812C15.5694 9.53379 14.1445 10.2207 13.3334 11.4548V10.6548C13.3334 10.2867 13.0349 9.98812 12.6667 9.98812H10.6667C10.2986 9.98812 10.0001 10.2867 10.0001 10.6548V19.9881C10.0001 20.3563 10.2986 20.6548 10.6667 20.6548H12.6667C13.0349 20.6548 13.3334 20.3563 13.3334 19.9881V14.9881C13.3334 13.8836 14.2289 12.9881 15.3334 12.9881C16.4379 12.9881 17.3334 13.8836 17.3334 14.9881V19.9881C17.3334 20.3563 17.6319 20.6548 18.0001 20.6548H20.0001Z" fill="black"/>
</svg>
