<svg width="155" height="26" viewBox="0 0 155 26" fill="none" xmlns="http://www.w3.org/2000/svg">
<g clip-path="url(#clip0_315_157)">
<path d="M12.0944 0.953177C12.5527 -0.135435 14.1137 -0.135434 14.572 0.95318L17.2771 7.37836C17.4704 7.8373 17.9073 8.15087 18.4088 8.19059L25.4301 8.74669C26.6197 8.84091 27.1021 10.3076 26.1957 11.0746L20.8462 15.6016C20.4642 15.925 20.2972 16.4324 20.414 16.9158L22.0483 23.6847C22.3252 24.8315 21.0624 25.7381 20.0439 25.1235L14.0326 21.4961C13.6032 21.237 13.0632 21.237 12.6338 21.4961L6.62253 25.1235C5.60403 25.7381 4.34115 24.8315 4.61806 23.6847L6.25244 16.9158C6.36918 16.4324 6.20231 15.925 5.82022 15.6016L0.470627 11.0746C-0.435746 10.3076 0.0466351 8.84091 1.23627 8.74669L8.25768 8.19059C8.75921 8.15087 9.19609 7.8373 9.3893 7.37836L12.0944 0.953177Z" fill="#006B6A"/>
<path d="M44.0944 0.953177C44.5527 -0.135435 46.1137 -0.135434 46.572 0.95318L49.2771 7.37836C49.4704 7.8373 49.9073 8.15087 50.4088 8.19059L57.4301 8.74669C58.6197 8.84091 59.1021 10.3076 58.1957 11.0746L52.8462 15.6016C52.4642 15.925 52.2972 16.4324 52.414 16.9158L54.0483 23.6847C54.3252 24.8315 53.0624 25.7381 52.0439 25.1235L46.0326 21.4961C45.6032 21.237 45.0632 21.237 44.6338 21.4961L38.6225 25.1235C37.604 25.7381 36.3412 24.8315 36.6181 23.6847L38.2524 16.9158C38.3692 16.4324 38.2023 15.925 37.8202 15.6016L32.4706 11.0746C31.5643 10.3076 32.0466 8.84091 33.2363 8.74669L40.2577 8.19059C40.7592 8.15087 41.1961 7.8373 41.3893 7.37836L44.0944 0.953177Z" fill="#006B6A"/>
<path d="M76.0943 0.953177C76.5526 -0.135435 78.1136 -0.135434 78.5719 0.95318L81.2769 7.37836C81.4703 7.8373 81.9072 8.15087 82.4086 8.19059L89.43 8.74669C90.6196 8.84091 91.102 10.3076 90.1956 11.0746L84.8461 15.6016C84.4641 15.925 84.2971 16.4324 84.4138 16.9158L86.0482 23.6847C86.3251 24.8315 85.0623 25.7381 84.0438 25.1235L78.0325 21.4961C77.6031 21.237 77.0631 21.237 76.6337 21.4961L70.6224 25.1235C69.6039 25.7381 68.341 24.8315 68.6179 23.6847L70.2523 16.9158C70.3691 16.4324 70.2022 15.925 69.8201 15.6016L64.4705 11.0746C63.5641 10.3076 64.0465 8.84091 65.2361 8.74669L72.2576 8.19059C72.7591 8.15087 73.196 7.8373 73.3892 7.37836L76.0943 0.953177Z" fill="#006B6A"/>
<path d="M108.094 0.953177C108.553 -0.135435 110.114 -0.135434 110.572 0.95318L113.277 7.37836C113.47 7.8373 113.907 8.15087 114.409 8.19059L121.43 8.74669C122.62 8.84091 123.102 10.3076 122.196 11.0746L116.846 15.6016C116.464 15.925 116.297 16.4324 116.414 16.9158L118.048 23.6847C118.325 24.8315 117.062 25.7381 116.044 25.1235L110.032 21.4961C109.603 21.237 109.063 21.237 108.634 21.4961L102.622 25.1235C101.604 25.7381 100.341 24.8315 100.618 23.6847L102.252 16.9158C102.369 16.4324 102.202 15.925 101.82 15.6016L96.4705 11.0746C95.5641 10.3076 96.0465 8.84091 97.2361 8.74669L104.258 8.19059C104.759 8.15087 105.196 7.8373 105.389 7.37836L108.094 0.953177Z" fill="#006B6A"/>
<path d="M140.094 0.953177C140.552 -0.135435 142.113 -0.135434 142.572 0.95318L145.277 7.37836C145.47 7.8373 145.907 8.15087 146.408 8.19059L153.43 8.74669C154.619 8.84091 155.102 10.3076 154.195 11.0746L148.846 15.6016C148.464 15.925 148.297 16.4324 148.414 16.9158L150.048 23.6847C150.325 24.8315 149.062 25.7381 148.044 25.1235L142.032 21.4961C141.603 21.237 141.063 21.237 140.633 21.4961L134.622 25.1235C133.604 25.7381 132.341 24.8315 132.618 23.6847L134.252 16.9158C134.369 16.4324 134.202 15.925 133.82 15.6016L128.47 11.0746C127.564 10.3076 128.046 8.84091 129.236 8.74669L136.257 8.19059C136.759 8.15087 137.196 7.8373 137.389 7.37836L140.094 0.953177Z" fill="#006B6A"/>
</g>
<defs>
<clipPath id="clip0_315_157">
<rect width="154.666" height="25.1852" fill="white" transform="translate(-0.00012207 0.136719)"/>
</clipPath>
</defs>
</svg>
