<svg width="25" height="22" viewBox="0 0 25 22" fill="none" xmlns="http://www.w3.org/2000/svg">
<path d="M24.6304 3.61132C24.0112 4.43735 23.2627 5.1579 22.4137 5.74514C22.4137 5.96091 22.4137 6.17668 22.4137 6.40445C22.4205 10.3229 20.8553 14.0803 18.0691 16.8341C15.2827 19.588 11.5083 21.108 7.59207 21.0533C5.32799 21.0609 3.0929 20.544 1.0619 19.5429C0.952376 19.4951 0.881749 19.3868 0.882163 19.2672V19.1353C0.882163 18.9632 1.02164 18.8237 1.1937 18.8237C3.41923 18.7503 5.56536 17.9787 7.32846 16.618C5.31404 16.5773 3.50159 15.384 2.66747 13.5491C2.62535 13.4489 2.63846 13.3339 2.7021 13.2457C2.76572 13.1576 2.87067 13.1091 2.979 13.1176C3.59123 13.1791 4.20958 13.1221 4.80027 12.9497C2.57652 12.4881 0.905616 10.642 0.666483 8.38239C0.657989 8.27399 0.706563 8.16905 0.794669 8.10532C0.882763 8.04172 0.997656 8.02852 1.09784 8.07079C1.69459 8.33412 2.33879 8.47279 2.99099 8.47826C1.04246 7.1994 0.200816 4.76685 0.942069 2.55641C1.01859 2.34163 1.20242 2.18295 1.426 2.13871C1.64958 2.09445 1.87995 2.17116 2.03243 2.34064C4.66186 5.13912 8.27472 6.80674 12.1092 6.99184C12.0111 6.59992 11.9628 6.19713 11.9655 5.79308C12.0013 3.67441 13.3123 1.78707 15.2845 1.01461C17.2567 0.242174 19.4999 0.737495 20.964 2.26871C21.9619 2.07859 22.9267 1.74339 23.8276 1.27373C23.8936 1.23253 23.9773 1.23253 24.0433 1.27373C24.0845 1.33976 24.0845 1.42348 24.0433 1.48951C23.6069 2.48881 22.8697 3.32695 21.9345 3.88704C22.7535 3.79207 23.558 3.59888 24.3309 3.31164C24.396 3.26735 24.4815 3.26735 24.5465 3.31164C24.6011 3.33657 24.6419 3.38427 24.658 3.44201C24.6741 3.49976 24.664 3.56169 24.6304 3.61132Z" fill="black"/>
</svg>
